HIERARCHY
ROOT Hips
{
 OFFSET 0.000000 0.000000 0.000000
 CHANNELS 6 Xposition Yposition Zposition Yrotation Xrotation Zrotation
 JOINT Chest
 {
  OFFSET 0.000000 13.173100 -0.061900
  CHANNELS 3 Yrotation Xrotation Zrotation
  JOINT Chest2
  {
   OFFSET 0.000000 8.040800 0.126200
   CHANNELS 3 Yrotation Xrotation Zrotation
   JOINT Chest3
   {
    OFFSET 0.000000 7.994400 0.000000
    CHANNELS 3 Yrotation Xrotation Zrotation
    JOINT Chest4
    {
     OFFSET 0.000000 7.986200 0.000000
     CHANNELS 3 Yrotation Xrotation Zrotation
     JOINT Neck
     {
      OFFSET 0.000000 12.259400 0.000000
      CHANNELS 3 Yrotation Xrotation Zrotation
      JOINT Head
      {
       OFFSET 0.000000 7.518700 0.267100
       CHANNELS 3 Yrotation Xrotation Zrotation
       End Site
       {
        OFFSET 0.000000 13.617700 0.141000
       }
      }
     }
     JOINT RightCollar
     {
      OFFSET -2.983800 8.314300 0.000000
      CHANNELS 3 Yrotation Xrotation Zrotation
      JOINT RightShoulder
      {
       OFFSET -16.133400 0.000000 0.000000
       CHANNELS 3 Yrotation Xrotation Zrotation
       JOINT RightElbow
       {
        OFFSET 0.000000 -29.822100 0.000000
        CHANNELS 3 Yrotation Xrotation Zrotation
        JOINT RightWrist
        {
         OFFSET 0.000000 -24.437700 0.010900
         CHANNELS 3 Yrotation Xrotation Zrotation
         End Site
         {
          OFFSET 0.000000 -18.312300 0.000000
         }
        }
       }
      }
     }
     JOINT LeftCollar
     {
      OFFSET 2.983800 8.314300 0.000000
      CHANNELS 3 Yrotation Xrotation Zrotation
      JOINT LeftShoulder
      {
       OFFSET 16.133400 0.000000 0.000000
       CHANNELS 3 Yrotation Xrotation Zrotation
       JOINT LeftElbow
       {
        OFFSET 0.000000 -29.822100 0.000000
        CHANNELS 3 Yrotation Xrotation Zrotation
        JOINT LeftWrist
        {
         OFFSET 0.000000 -24.437700 0.010900
         CHANNELS 3 Yrotation Xrotation Zrotation
         End Site
         {
          OFFSET 0.000000 -18.312300 0.000000
         }
        }
       }
      }
     }
    }
   }
  }
 }
 JOINT RightHip
 {
  OFFSET -11.206700 0.306200 0.030900
  CHANNELS 3 Yrotation Xrotation Zrotation
  JOINT RightKnee
  {
   OFFSET 0.000000 -57.334900 0.009400
   CHANNELS 3 Yrotation Xrotation Zrotation
   JOINT RightAnkle
   {
    OFFSET 0.000000 -43.376200 0.036600
    CHANNELS 3 Yrotation Xrotation Zrotation
    JOINT RightToe
    {
     OFFSET 0.000000 -10.035500 18.363100
     CHANNELS 3 Yrotation Xrotation Zrotation
     End Site
     {
      OFFSET 0.000000 -1.618500 7.239000
     }
    }
   }
  }
 }
 JOINT LeftHip
 {
  OFFSET 11.206700 0.306200 0.030900
  CHANNELS 3 Yrotation Xrotation Zrotation
  JOINT LeftKnee
  {
   OFFSET 0.000000 -57.334900 0.009400
   CHANNELS 3 Yrotation Xrotation Zrotation
   JOINT LeftAnkle
   {
    OFFSET 0.000000 -43.376200 0.036600
    CHANNELS 3 Yrotation Xrotation Zrotation
    JOINT LeftToe
    {
     OFFSET 0.000000 -10.035500 18.363100
     CHANNELS 3 Yrotation Xrotation Zrotation
     End Site
     {
      OFFSET 0.000000 -1.618500 7.239000
     }
    }
   }
  }
 }
}
MOTION
Frames: 17
Frame Time: 0.008333
0.000000 110.232800 0.000000 0.000000 -5.767877 0.000000 0.000000 11.653817 0.000000 0.000000 -5.885947 0.000000 0.000000 -0.000000 0.000000 0.000000 -0.000000 0.000000 0.000000 12.528835 0.000000 0.000000 0.711642 0.000000 0.000000 -0.000000 0.000000 0.000000 0.000000 -90.000000 0.000000 -2.309062 0.000000 0.000000 2.309062 0.000000 0.000000 -0.000000 0.000000 0.000000 -0.000000 90.000000 0.000000 -2.309062 0.000000 0.000000 2.309062 0.000000 0.000000 8.520406 0.000000 0.000000 1.905762 0.000000 -0.000000 -4.658285 0.000000 0.000000 -0.000000 0.000000 0.000000 8.520406 0.000000 0.000000 1.905762 0.000000 -0.000000 -4.658285 0.000000 0.000000 -0.000000 0.000000
-96.666242 64.874776 85.284773 172.626784 -36.369567 -2.217800 1.760410 19.896514 0.993931 0.184517 2.474779 0.213467 0.307971 4.062078 0.354838 1.511079 17.137385 1.690345 2.122898 16.071748 0.829093 3.652160 -5.988316 0.762252 -3.723248 -0.516626 -6.485366 -3.427091 -5.834940 6.000605 128.772512 -81.368873 -118.880946 6.096302 3.308198 16.892347 -0.779251 -1.201574 1.763650 5.954146 -0.653290 2.748246 169.678706 -81.968892 174.868446 -8.864836 -5.906643 7.311855 -4.163254 -44.219471 4.821594 -104.005749 86.602161 -98.536862 0.597349 -8.899340 -4.926652 0.350912 -0.587515 0.189716 -3.177256 -41.121229 5.233540 76.304671 83.447221 65.966920 -5.101665 -12.868028 7.655870 0.232612 1.035006 0.102244
-96.667313 64.871378 85.289299 172.616105 -36.372516 -2.209484 1.781062 19.880632 0.994654 0.194513 2.468678 0.213764 0.314323 4.056952 0.355556 1.539681 17.126197 1.697495 2.068907 16.095648 0.839466 3.554659 -6.072621 0.730939 -3.778949 -0.427186 -6.414533 -3.422611 -5.896597 5.959392 129.402039 -81.450072 -119.518736 6.029671 3.189028 16.637224 -0.797269 -1.152152 1.763255 5.859316 -0.766408 2.760283 169.743570 -81.853174 174.761775 -8.620961 -6.850877 8.016894 -4.160328 -44.216706 4.819186 -103.913252 86.609152 -98.444037 0.602514 -8.895100 -4.929564 0.351134 -0.585896 0.187940 -3.188808 -41.116054 5.226643 76.276081 83.428589 65.940812 -5.093602 -12.863910 7.644074 0.234765 1.040481 0.102259
-96.670679 64.867512 85.294867 172.613746 -36.374129 -2.198931 1.784995 19.876915 0.986272 0.210114 2.461566 0.214050 0.328115 4.055197 0.356381 1.571388 17.121131 1.705891 2.005984 16.008085 0.798603 3.450399 -6.104835 0.743274 -3.842459 -0.353097 -6.346768 -3.407699 -5.957234 5.951541 129.769279 -81.497177 -119.905802 5.964796 3.052663 16.369339 -0.822839 -1.111670 1.765865 5.794182 -0.839765 2.769279 169.832690 -81.675839 174.593959 -8.332704 -8.119421 8.811997 -4.153449 -44.216821 4.804891 -103.845341 86.616542 -98.374688 0.603283 -8.889088 -4.933016 0.349498 -0.585245 0.187831 -3.216138 -41.112388 5.210962 76.268757 83.396729 65.927231 -5.074812 -12.857987 7.629321 0.218984 1.044542 0.096167
-96.672842 64.864847 85.300188 172.602360 -36.383947 -2.190142 1.819928 19.874815 0.993062 0.192731 2.469656 0.214403 0.346693 4.055864 0.356891 1.611462 17.126049 1.715289 1.946291 15.947230 0.776181 3.346113 -6.214090 0.719719 -3.901112 -0.294993 -6.284334 -3.399831 -6.005455 5.952554 129.810556 -81.478865 -119.959458 5.845835 2.897565 16.082935 -0.847160 -1.077588 1.770543 5.681076 -0.978082 2.785352 169.894546 -81.527943 174.500262 -8.008488 -9.711399 9.672307 -4.145938 -44.207854 4.800625 -103.719007 86.614836 -98.247493 0.609850 -8.882027 -4.925563 0.350454 -0.584621 0.176582 -3.219760 -41.101956 5.206076 76.252289 83.381960 65.908647 -5.073800 -12.846317 7.623250 0.218576 1.039549 0.093950
-96.673777 64.862264 85.307179 172.590941 -36.390406 -2.189058 1.874060 19.881700 1.015932 0.179140 2.467581 0.212363 0.355039 4.067732 0.362301 1.640808 17.132043 1.723406 1.883533 15.873277 0.747390 3.240353 -6.351571 0.687156 -3.958684 -0.281691 -6.250164 -3.400326 -6.026623 5.949975 129.925208 -81.484610 -120.078802 5.741943 2.751288 15.790246 -0.874397 -1.044376 1.777338 5.564585 -1.109945 2.806297 170.048733 -81.338664 174.326530 -7.649986 -11.595281 10.564613 -4.165010 -44.199661 4.812064 -103.487327 86.598149 -98.015621 0.645063 -8.866636 -4.939791 0.344645 -0.588620 0.175801 -3.220435 -41.094285 5.210467 76.213133 83.371680 65.872337 -5.082396 -12.837785 7.623923 0.226685 1.040222 0.093942
-96.687079 64.856616 85.317664 172.617580 -36.370350 -2.159825 1.841684 19.865127 0.970474 0.201380 2.474323 0.215850 0.369134 4.081906 0.367529 1.659284 17.137395 1.730150 1.816800 15.773015 0.703753 3.129571 -6.500631 0.655029 -3.991477 -0.228332 -6.196177 -3.427329 -6.092064 5.927447 130.057233 -81.519514 -120.218004 5.679558 2.606208 15.493182 -0.907337 -1.010405 1.785086 5.504507 -1.198573 2.810534 170.351460 -81.079077 173.955678 -7.264350 -13.715449 11.441652 -4.178247 -44.220378 4.762547 -103.369462 86.599711 -97.912369 0.640507 -8.868019 -4.949275 0.352297 -0.582784 0.183179 -3.227136 -41.113890 5.151794 76.136001 83.347289 65.799280 -5.130168 -12.834998 7.588623 0.274773 1.059322 0.124367
-96.682986 64.859350 85.321761 172.578629 -36.403462 -2.162547 1.909732 19.905438 1.014866 0.216280 2.487419 0.220847 0.345273 4.070324 0.361182 1.701597 17.161271 1.740790 1.747982 15.672293 0.665113 3.016350 -6.687552 0.605880 -4.010375 -0.184177 -6.157846 -3.454214 -6.115957 5.937291 130.203307 -81.522487 -120.375027 5.627209 2.465290 15.181136 -0.940025 -0.974895 1.791435 5.385883 -1.295445 2.837956 170.472959 -80.794645 173.825864 -6.884233 -15.981136 12.253276 -4.246264 -44.179687 4.833843 -103.150765 86.599672 -97.732345 0.686677 -8.852236 -4.951743 0.321315 -0.587561 0.164944 -3.238243 -41.075921 5.187484 76.098313 83.333085 65.748009 -5.093383 -12.812949 7.595722 0.243558 1.038276 0.110488
-96.685084 64.856864 85.333293 172.543184 -36.393447 -2.143682 1.975890 19.922427 1.040578 0.192317 2.468256 0.213840 0.348598 4.073931 0.361876 1.742992 17.186002 1.750316 1.677643 15.560729 0.625271 2.900725 -6.894643 0.555062 -4.030674 -0.158618 -6.137197 -3.439187 -6.041461 6.005699 130.256878 -81.506169 -120.463433 5.619360 2.273416 14.850749 -0.970172 -0.938881 1.797023 5.257841 -1.362864 2.865632 170.463342 -80.435805 173.835344 -6.578414 -18.269403 12.982858 -4.255137 -44.188003 4.853021 -102.788416 86.604594 -97.371214 0.679613 -8.837348 -4.977549 0.333795 -0.583871 0.171527 -3.245506 -41.079689 5.196333 76.034746 83.306468 65.675502 -5.095834 -12.810038 7.582976 0.241839 1.041582 0.116497
-96.687074 64.857490 85.341690 172.539541 -36.400725 -2.140953 1.998080 19.941941 1.049290 0.217261 2.492100 0.219379 0.333230 4.063912 0.360909 1.771133 17.196678 1.757887 1.606109 15.445058 0.586897 2.782360 -7.109564 0.507544 -4.066973 -0.164850 -6.124457 -3.399023 -5.962418 6.059007 130.187203 -81.490778 -120.436433 5.581578 2.117145 14.530264 -1.006349 -0.922846 1.803998 5.147041 -1.382380 2.885425 170.493728 -79.985882 173.798540 -6.410836 -20.443468 13.659498 -4.274290 -44.177094 4.866717 -102.555492 86.607228 -97.149449 0.677919 -8.825959 -4.983980 0.332761 -0.586515 0.174256 -3.251648 -41.068242 5.192426 75.944719 83.293722 65.587994 -5.100687 -12.805247 7.577002 0.249254 1.045773 0.115739
-96.697756 64.853589 85.355103 172.577782 -36.373406 -2.126810 1.968299 19.925164 1.015519 0.226696 2.500718 0.220915 0.368511 4.096652 0.367025 1.769531 17.184045 1.763815 1.542622 15.367155 0.571299 2.651506 -7.357382 0.446159 -4.087453 -0.126303 -6.109057 -3.382231 -5.943182 6.098918 130.065821 -81.486056 -120.356037 5.533504 1.993535 14.223487 -1.055972 -0.944222 1.811673 5.049007 -1.346884 2.914851 170.803466 -79.444260 173.497758 -6.383445 -22.383626 14.322262 -4.279573 -44.202399 4.823315 -102.323178 86.608990 -96.916516 0.650999 -8.827296 -5.002122 0.358298 -0.580503 0.191738 -3.256108 -41.095060 5.140146 75.806708 83.276369 65.463006 -5.149552 -12.805969 7.546637 0.296014 1.069178 0.142960
-96.690074 64.858231 85.360298 172.529099 -36.407753 -2.133608 2.027683 19.959247 1.056713 0.247898 2.517085 0.222956 0.375569 4.104841 0.368862 1.798886 17.196790 1.773457 1.475801 15.286689 0.556961 2.508934 -7.594853 0.392574 -4.122227 -0.108174 -6.096139 -3.367470 -5.929334 6.128656 129.838187 -81.515205 -120.150833 5.491138 1.884377 13.931495 -1.100932 -0.925523 1.825588 4.963510 -1.342890 2.947442 171.585779 -78.824676 172.730224 -6.461954 -24.018291 15.007450 -4.299473 -44.163481 4.885649 -102.057016 86.614325 -96.662173 0.680375 -8.804116 -5.003631 0.327392 -0.593671 0.179300 -3.251303 -41.054819 5.186576 75.737613 83.270464 65.390421 -5.120961 -12.785924 7.553414 0.271615 1.041240 0.134637
-96.697984 64.853984 85.373814 172.541342 -36.381673 -2.112473 2.029170 19.948516 1.035377 0.254363 2.524980 0.223169 0.365225 4.097052 0.369072 1.814260 17.203307 1.778469 1.423615 15.195947 0.521073 2.359857 -7.792768 0.363801 -4.133244 -0.071782 -6.087360 -3.378696 -5.961386 6.137738 129.434681 -81.599345 -119.737316 5.460702 1.791317 13.663645 -1.115226 -0.899098 1.835483 4.906447 -1.324783 2.996184 172.864880 -78.154032 171.458042 -6.632491 -25.322178 15.756261 -4.317870 -44.191302 4.871153 -101.796715 86.621201 -96.412710 0.644496 -8.788950 -5.033027 0.358648 -0.595425 0.199927 -3.252861 -41.080052 5.154684 75.652720 83.256513 65.302384 -5.155613 -12.787151 7.536173 0.302533 1.057424 0.152607
-96.700231 64.852244 85.383689 172.545013 -36.377705 -2.107043 2.067823 19.974480 1.043840 0.240283 2.520581 0.224406 0.356714 4.086302 0.368168 1.878191 17.253240 1.796385 1.300391 15.027298 0.461020 2.215214 -7.950401 0.363936 -4.189888 -0.066169 -6.069062 -3.304860 -5.873837 6.178157 129.494952 -81.562724 -119.862397 5.445646 1.713913 13.420408 -1.177953 -0.928968 1.843199 4.889581 -1.302630 3.064449 174.509134 -77.452533 169.799364 -6.887859 -26.300520 16.575489 -4.331592 -44.194625 4.875327 -101.624523 86.625217 -96.246908 0.636185 -8.781913 -5.053315 0.362734 -0.597371 0.212389 -3.251499 -41.083759 5.144355 75.528670 83.248019 65.177259 -5.159956 -12.768620 7.533744 0.307615 1.053213 0.156469
-96.704701 64.848364 85.394396 172.561053 -36.363556 -2.098610 2.053647 19.966147 1.026925 0.248013 2.529742 0.225306 0.377419 4.109672 0.372931 1.917665 17.290099 1.814124 1.184994 14.891193 0.420834 2.061363 -8.139596 0.344269 -4.246367 -0.088276 -6.056008 -3.270855 -5.814204 6.194500 129.435944 -81.578101 -119.818719 5.440994 1.647526 13.200025 -1.228624 -0.967724 1.850672 4.904987 -1.290748 3.133459 176.292529 -76.730672 167.979311 -7.193691 -26.988334 17.412663 -4.338933 -44.209731 4.858570 -101.509621 86.629566 -96.132261 0.626560 -8.780357 -5.067304 0.372740 -0.599448 0.214555 -3.257455 -41.097670 5.124371 75.354626 83.234930 65.001252 -5.177737 -12.743837 7.525905 0.320948 1.050283 0.165665
-96.703486 64.846958 85.401107 172.563449 -36.371364 -2.103489 2.077636 19.995101 1.039436 0.238746 2.522916 0.226034 0.425187 4.179528 0.389026 1.880062 17.236654 1.808349 1.138683 14.837328 0.404969 1.882340 -8.355965 0.311543 -4.254440 -0.072231 -6.047893 -3.266020 -5.768383 6.198444 129.330738 -81.613798 -119.703090 5.441926 1.588963 13.008004 -1.204382 -0.944293 1.859399 4.881472 -1.324949 3.158211 178.165482 -76.023008 166.077127 -7.507182 -27.443769 18.194831 -4.355353 -44.200952 4.871593 -101.378920 86.631900 -96.002881 0.623495 -8.770716 -5.075287 0.377419 -0.605012 0.213555 -3.262075 -41.090139 5.130761 75.289326 83.232239 64.933030 -5.177984 -12.730407 7.523846 0.326648 1.042233 0.171568
-96.702150 64.844718 85.407465 172.561612 -36.376081 -2.105902 2.124826 20.047477 1.079208 0.220176 2.507861 0.213834 0.430308 4.183951 0.398904 1.909313 17.267127 1.829626 1.053387 14.747030 0.371561 1.706769 -8.560032 0.279524 -4.285987 -0.101732 -6.053570 -3.284851 -5.761166 6.194015 129.029652 -81.678673 -119.377960 5.465856 1.507640 12.895342 -1.248687 -1.004808 1.844469 4.896199 -1.316448 3.193662 179.715091 -75.316686 164.486372 -7.787153 -27.731214 18.844923 -4.379012 -44.196049 4.890092 -101.269790 86.632316 -95.902375 0.625843 -8.760712 -5.077876 0.378959 -0.609827 0.207855 -3.250650 -41.085871 5.134923 75.218939 83.236301 64.866181 -5.189367 -12.720452 7.525991 0.321068 1.034983 0.177537
